<?xml version="1.0" encoding="UTF-8" standalone="no"?>
<svg xmlns:rdf="http://www.w3.org/1999/02/22-rdf-syntax-ns#" xmlns="http://www.w3.org/2000/svg" xml:space="preserve" height="202.01" viewBox="0 0 202 202.00523" width="202" version="1.1" xmlns:cc="http://creativecommons.org/ns#" xmlns:dc="http://purl.org/dc/elements/1.1/"><g transform="matrix(1.25 0 0 -1.25 -303.2 853.63)"><g style="" transform="matrix(2.09 0 0 2.09 -351 -654.83)"><path d="m322.56 639.58c-21.139 0-38.277-17.138-38.277-38.276 0-21.141 17.138-38.281 38.277-38.281 21.14 0 38.278 17.14 38.278 38.281 0 21.138-17.138 38.276-38.278 38.276" fill="#fff"/><path d="m314.72 600.45c-0.158-0.461-0.274-0.795-0.422-1.329l-0.518-0.171c-0.269 0.727-0.503 1.364-0.757 2.1519 0 0 0.154 0.0481 0.374 0.1011 0.228 0.054 0.295 0.074 0.404 0.0709l0.415-1.271c0.021-0.065 0.035-0.0499 0.057 0.0201 0.156 0.504 0.22 0.719 0.403 1.401 0 0 0.213 0.0709 0.336 0.096 0.219 0.0429 0.276 0.0429 0.375 0.05l0.302-1.1971c0.016-0.042 0.016-0.0709 0.042 0.0411 0.137 0.5289 0.349 1.302 0.349 1.302 0.07 0.03 0.145 0.036 0.236 0.062 0.075 0.0219 0.159 0.028 0.174 0.011-0.178-0.574-0.471-1.475-0.701-2.254l-0.624-0.137-0.349 1.0609c-0.024 0.0501-0.081 0.0541-0.096-0.009m-1.857-5.8191c-0.165-0.1869-0.31-0.2379-0.542-0.2799-0.376-0.066-0.643 0.148-0.632 0.447 0.013 0.399 0.097 0.599 0.66 0.8689 0.049 0.021 0.378 0.1881 0.509 0.253 0.038 0.018 0.048 0.1261 0.048 0.187 0 0.2221-0.102 0.326-0.314 0.326-0.337 0-0.44-0.263-0.476-0.414l-0.241-0.004c-0.018 0.064 0.038 0.206 0.058 0.2589 0.074 0.177 0.367 0.513 0.851 0.5511 0.527 0.043 0.807-0.219 0.807-0.677l-0.026-0.979c0.007-0.3 0.286-0.126 0.297-0.12l0.07-0.068c-0.006-0.107-0.142-0.325-0.537-0.37-0.273-0.031-0.335 0.0199-0.429 0.0509-0.044 0.034-0.103-0.031-0.103-0.031m14.352 9.3271c-0.115 0.0109-0.231-0.037-0.345-0.037-0.117 0-0.231-0.076-0.347-0.086v3.4729c0.116-0.01 0.22 0.036 0.336 0.036s0.241 0 0.356 0.009v-3.395zm-7.691 3.1389c0.116-0.008 0.262-0.004 0.378-0.004 0.117 0 0.209-0.041 0.411-0.087-0.061-1.0421-0.023-2.629 0-3.3731-0.194 0.0281-0.26 0.042-0.411 0.0531-0.116 0-0.262-0.009-0.378 0 0.023 0.7439 0.063 2.37 0 3.4109m2.513-11.711c-0.007-0.4579 0.122-0.6239 0.518-0.6239l-0.006-0.234c-0.162-0.0641-0.416-0.019-0.633 0.0319-0.501 0.1141-0.605 0.3971-0.605 0.8241v1.401l-0.299 0.071c0.013 0.106 0.013 0.1889 0 0.295l0.299-0.061v0.513c-0.062-0.004 0.746 0.104 0.726 0.092v-0.79l0.418-0.106c-0.012-0.1061-0.012-0.201 0-0.307l-0.418 0.069v-1.1751zm8.193 0.1671c-0.155-0.083-0.492-0.148-0.729-0.13-0.76 0.053-1.234 0.509-1.234 1.175 0 0.73 0.38 1.282 1.099 1.237 0.393-0.024 0.666-0.1471 0.883-0.307l-0.062-0.566-0.113 0.024c-0.003 0.1549-0.144 0.477-0.561 0.4749-0.408-0.003-0.509-0.4359-0.524-0.8349 0.011-0.476 0.197-0.773 0.65-0.8911 0.187-0.0489 0.529-0.0409 0.633 0.0381l-0.042-0.22zm-3.277 1.441c0 0.222-0.099 0.32-0.31 0.32-0.339 0-0.44-0.263-0.476-0.417h-0.229c-0.011 0.089 0.024 0.2049 0.047 0.258 0.071 0.175 0.367 0.513 0.849 0.552 0.527 0.04 0.809-0.2201 0.809-0.68 0.001-0.028 0.004-0.059 0.004-0.0891l-0.02-0.9229c0-0.1711-0.007-0.2801 0.301-0.252l0.026-0.0491c-0.006-0.1059-0.171-0.2909-0.536-0.2909-0.128 0-0.363 0.0669-0.382 0.108-0.019 0.035-0.047 0.0159-0.087-0.0411-0.037-0.055-0.263-0.234-0.567-0.2599-0.561-0.012-0.636 0.2599-0.645 0.4579-0.02 0.4681 0.297 0.7691 0.781 0.932 0.111 0.039 0.254 0.0791 0.393 0.149 0.052 0.028 0.05 0.1421 0.042 0.2251m-1.179 2.388c-0.211-0.226-0.312-0.248-0.543-0.307-0.367-0.082-0.638 0.057-0.625 0.427 0.016 0.422 0.136 0.5739 0.654 0.886 0.047 0.026 0.378 0.22 0.509 0.286 0.068 0.034 0.047 0.122 0.047 0.189 0 0.222-0.101 0.323-0.313 0.323-0.339 0-0.439-0.263-0.477-0.4171h-0.231c-0.014 0.0771 0.028 0.205 0.051 0.2591 0.071 0.175 0.366 0.512 0.849 0.552 0.527 0.039 0.806-0.2181 0.806-0.677l-0.025-0.9831c0.006-0.2959 0.294-0.133 0.304-0.1299l0.062-0.056c-0.006-0.1061-0.142-0.3011-0.537-0.346-0.274-0.03-0.335-0.006-0.427 0.0289-0.046 0.034-0.104-0.0349-0.104-0.0349m3.561 2.625c-0.001 0.0219 0.255-0.029 0.359-0.05 0.176-0.043 0.232-0.046 0.367-0.089l0.002-0.259c0.229 0.1489 0.398 0.271 0.978 0.078 0.248-0.084 0.428-0.47 0.428-1.0411l0.014-1.406c-0.126 0.0361-0.246 0.0711-0.347 0.1011-0.11 0.031-0.222 0.039-0.348 0.069l0.016 1.034c0 0.4289 0.022 0.914-0.331 0.938-0.398 0.0219-0.399-0.456-0.399-0.745l0.016-1.045c-0.14 0.0439-0.325 0.071-0.429 0.0909-0.115 0.0251-0.213-0.008-0.326 0.006 0.036 0.5039 0.036 1.44 0 2.318m-10.738 4.282c-0.02-0.012-0.055 0.0109-0.065 0.027-0.172 0.2419-0.405 0.407-0.956 0.407-0.562-0.005-1.068-0.662-1.05-1.508 0.014-0.796 0.425-1.093 1.055-1.091 0.229 0 0.388 0.063 0.499 0.128l-0.01 1.015c0.115-0.01 0.228 0.004 0.343 0 0.188-0.01 0.277-0.0271 0.391-0.018v-1.2801c-0.09 0.008-0.843-0.1579-1.324-0.1579-1.265-0.004-1.779 0.406-1.778 1.4029 0.001 1.0751 0.882 1.8471 1.941 1.8471 0.394 0 0.737-0.13 1.077-0.306l-0.123-0.466zm3.596-3.105c-0.048 0.0769-0.048 0.0559-0.153 0-0.105-0.057-0.169-0.0951-0.358-0.0951-0.316 0.0281-0.776 0.3051-0.808 0.781-0.021 0.302 0.176 0.4781 0.354 0.5311 0.16 0.046 0.312 0.052 0.613 0.0709 0.093 0.006 0.206 0.004 0.224 0.0321 0.019 0.0559 0.016 0.152 0.018 0.1919 0.013 0.1681-0.047 0.3191-0.288 0.3991-0.233 0.0799-0.478-0.042-0.549-0.1651l-0.235 0.091c0.09 0.2571 0.464 0.4701 0.811 0.4241 0.779-0.103 0.936-0.5981 0.936-0.927v-1.167c0-0.17 0.073-0.2261 0.251-0.274 0.045-0.011 0.04-0.091-0.005-0.093-0.305-0.116-0.429-0.069-0.582 0.006-0.064 0.034-0.182 0.1191-0.229 0.1941m2.831 2.4149v1.3201c0.128 0.047 0.259 0.0889 0.36 0.1179 0.142 0.0421 0.219 0.06 0.364 0.078l0.002-3.435c-0.165-0.0739-0.265-0.1009-0.34-0.1359-0.125-0.0591-0.254-0.11-0.364-0.156l-0.006 0.1979c-0.164-0.2139-0.433-0.3819-0.542-0.416-0.269-0.0899-1.052-0.4129-1.044 1.0591 0.004 0.7479 0.496 1.234 1.001 1.2999 0.126 0.016 0.315 0.0611 0.53-0.0479 0.044-0.0201 0.044 0.0269 0.039 0.1179m6.62-8.4299c-0.001-0.081 0.027-0.061 0.058-0.034 0.028 0.0319 0.086 0.146 0.377 0.151 0.395-0.005 0.634-0.253 0.78-0.458 0.138-0.19 0.192-0.357 0.192-0.581v-1.565c-0.155 0.0449-0.289 0.086-0.408 0.122-0.101 0.029-0.205 0.055-0.347 0.0609v1.0491c0 0.429 0.075 0.9299-0.377 0.9379-0.294 0.01-0.276-0.3479-0.276-0.643v-1.0689c-0.107 0.008-0.288 0.1159-0.394 0.1159-0.105 0-0.226 0.0511-0.332 0.0431v3.503c0.106-0.0101 0.229-0.0331 0.364-0.053 0.114-0.018 0.191-0.075 0.362-0.104 0.001-0.2831 0.003-1.394 0.001-1.476m-12.784-1.396s-0.01 0.0759-0.069 0c0 0-0.181-0.108-0.364-0.12-0.295-0.0771-1.323 0.114-1.239 1.258 0.064 0.853 0.676 1.062 0.914 1.065 0.288 0.002 0.49-0.062 0.653-0.2491 0.056-0.065 0.095-0.1079 0.096 0.004v1.276c0.006 0.0429 0.042 0.039 0.089 0.033 0.059-0.006 0.193-0.014 0.28-0.039 0.101-0.026 0.154-0.0141 0.309-0.087v-3.326c-0.167 0.0239-0.223 0.0349-0.332 0.049-0.137 0.016-0.227 0.016-0.339 0.036 0 0 0.011 0.053 0.002 0.1m-4.493 1.3109c0.094 0.026 0.188 0.1161 0.288 0.1471 0.087 0.028 0.23 0.0789 0.352 0.1049l0.058-0.2069c0.424 0.505 0.755 0.661 1.143 0.5069 0.337-0.1269 0.322-0.5719 0.322-1.1219v-1.009c-0.168-0.035-0.251-0.051-0.371-0.074-0.144-0.0401-0.251-0.0971-0.357-0.104l0.009 0.8609c0 0.4261-0.014 0.9101-0.334 0.9101-0.399 0-0.395-0.49-0.395-0.779l0.002-1.1911c-0.124-0.016-0.279-0.0509-0.381-0.0769-0.124-0.023-0.204-0.063-0.345-0.104l0.009 2.1369zm13.779 4.4981c0.071 0.255 0.293 0.453 0.719 0.453-0.023-0.2141-0.056-0.418-0.074-0.679l-0.041-0.036c-0.059 0.038-0.174 0.048-0.274 0.048-0.203 0.002-0.282-0.0811-0.337-0.278-0.042-0.133-0.028-0.382-0.028-0.529l0.032-0.874c-0.135-0.004-0.262-0.004-0.388-0.024-0.129-0.02-0.257-0.059-0.361-0.071l-0.026 2.319c0.116-0.005 0.224 0.008 0.329 0.025 0.129 0.021 0.265 0.0229 0.37 0.031l0.001-0.397c0-0.081 0.036-0.089 0.078 0.012m-4.335-6.0271s-0.184-0.5509 0.475-0.5509c0.326 0 0.637 0.315 0.796 0.48l0.001-0.319c-0.235-0.312-0.447-0.5681-1.036-0.7191-0.817-0.2119-1.032 0.4281-0.993 1.101 0.032 0.586 0.377 1.175 1.137 1.4211 0.853 0.281 1.053-0.2851 1.007-0.877-0.757-0.289-0.856-0.326-1.387-0.5361m-1.023 4.2081s-0.012-0.758 0.552-0.758c0.354-0.024 0.543 0.0839 0.699 0.186 0.038 0.03 0.117 0.0199 0.108-0.031-0.024-0.148-0.077-0.216-0.159-0.301-0.091-0.0801-0.309-0.269-0.725-0.2751-0.76-0.004-1.283 0.7121-1.271 1.328 0.015 0.7101 0.437 1.1021 1.067 1.1021 0.711 0 1.172-0.465 1.113-1.2351-0.771-0.0369-1.384-0.0159-1.384-0.0159m-2.025 2.926c0.129-0.023 0.232-0.047 0.359-0.076 0.123-0.031 0.206-0.06 0.377-0.1231-0.066-1.5039-0.068-1.906 0-3.521 0 0-0.297 0.1421-0.424 0.1811-0.101 0.032-0.392 0.12-0.392 0.12 0.033 1.627 0.047 1.857-0.02 3.3999 0.017 0.0251 0.066 0.0251 0.1 0.0191m-3.085-1.788c-0.042-0.004-0.042-0.0281-0.044-0.0911-0.012-0.312 0.198-0.5979 0.59-0.666 0.185-0.0309 0.557 0.049 0.732 0.153l-0.067-0.3079c-0.108-0.079-0.221-0.125-0.362-0.161-0.242-0.071-0.501-0.0411-0.637-0.029-0.666 0.056-0.951 0.5609-0.947 1.0759 0.004 0.6421 0.349 1.2031 1.016 1.2031 0.923 0 1.143-0.5781 1.093-1.2341-0.463 0.0531-1.1 0.0791-1.374 0.0571m11.457 4.277 0.413 1.061c0.113-0.007 0.144-0.016 0.152-0.016 0.064 0 0.227-0.0121 0.355-0.032l-0.656-1.3391c-0.34-0.7699-0.541-1.2229-0.835-2.021-0.064 0.008-0.215 0-0.279 0-0.065 0-0.241-0.0289-0.241-0.0289l0.641 1.2839-0.908 2.1971c0.119 0.0399 0.313 0.032 0.428 0.032s0.399-0.012 0.399-0.012c0.117-0.33 0.359-1.049 0.359-1.049 0.067-0.135 0.072-0.2541 0.172-0.076m-8.752 2.918c-3.102 1.008-6.303-0.914-8.382-0.9811-1.638-0.0539-3.36 0.3531-3.36 0.3531l0.025-16.118s1.32 0.2989 2.21 0.6499c3.806 1.508 7.455 1.5361 8.866 1.133 1.409-0.4049 3.007-1.4729 3.007-1.4729s1.599 1.068 3.008 1.4729c1.411 0.4031 5.06 0.375 8.868-1.133 0.886-0.351 2.231-0.6879 2.231-0.6879l0.003 16.156s-1.722-0.407-3.362-0.3531c-2.077 0.0671-5.28 1.9891-8.38 0.9811-1.136-0.37-2.097-1.014-2.368-1.2051-0.231 0.167-1.193 0.8251-2.366 1.2051m-7.814-12.589c-0.134-0.104-0.255-0.23-0.226-0.4831 0.019-0.154 0.092-0.2049 0.213-0.1809 0.209 0.039 0.304 0.2119 0.301 0.433-0.012 0.487-0.044 0.4199-0.288 0.231m14.085 0.924c-0.08-0.0451-0.249-0.198-0.265-0.456-0.009-0.151 0.062-0.2871 0.217-0.2611 0.258 0.0431 0.318 0.1791 0.347 0.4131 0.019 0.352-0.007 0.473-0.299 0.304m-1.151 3.849c-0.12-0.098-0.279-0.249-0.244-0.5321 0.018-0.1689 0.096-0.2299 0.23-0.203 0.233 0.041 0.339 0.2321 0.333 0.4801-0.013 0.541-0.047 0.479-0.319 0.255m-3.69 3.927c-0.12-0.029-0.292-0.188-0.273-0.456 0.011-0.1391 0.125-0.286 0.251-0.2921 0.163-0.006 0.26 0.057 0.261 0.3481 0.013 0.388-0.028 0.4509-0.239 0.4m2.326 0.3559c-0.03-0.3029-0.01-0.526 0.066-0.784 0.053-0.1139 0.084-0.1889 0.182-0.2409 0.089-0.016 0.097-0.016 0.199 0 0.134 0.06 0.213 0.131 0.289 0.2409 0.067 0.1191 0.174 0.3391 0.174 0.604 0.017 0.2571-0.013 0.4261-0.06 0.6011-0.053 0.106-0.083 0.182-0.181 0.236-0.126 0.022-0.241 0.013-0.361-0.055-0.042-0.03-0.153-0.139-0.182-0.181-0.053-0.126-0.095-0.225-0.126-0.4211m-6.177-7.906c0-0.235 0.014-0.5829 0.473-0.589 0.41-0.006 0.382 0.505 0.382 0.7821 0 0.3739-0.056 0.763-0.429 0.761-0.45-0.008-0.426-0.6781-0.426-0.9541m6.508-0.524c0.076 0.3141-0.078 0.6861-0.34 0.5951-0.293-0.1001-0.316-0.4831-0.322-0.607-0.014-0.234 0.022-0.2561 0.202-0.1731 0.102 0.047 0.46 0.185 0.46 0.185m-1.626 3.943h0.63c0.029-0.008 0.04 0.0621 0.04 0.0621 0 0.2009-0.077 0.575-0.351 0.578-0.337 0.003-0.366-0.391-0.373-0.5931 0.004-0.055 0.054-0.047 0.054-0.047m-5.163 1.1501h0.719c0.026 0.008 0.026 0.0189 0.028 0.059 0.009 0.162-0.107 0.595-0.368 0.595-0.313 0-0.399-0.3821-0.408-0.625 0.029-0.029-0.003-0.038 0.029-0.029m7.71 7.999c0.241 0.063 0.499 0.115 0.773 0.159l0.092 1.022 0.628 0.01c0.683-0.0251 0.707 1.2089 0.103 1.232h-4.243-4.241c-0.604-0.0231-0.58-1.2571 0.103-1.232l0.628-0.01 0.092-1.022c0.272-0.044 0.531-0.096 0.769-0.158l0.004 1.202h0.449l0.007-1.343c0.213-0.0691 0.385-0.128 0.567-0.205v1.548h0.448l-0.002-1.7561c0.79-0.4029 1.176-0.8039 1.176-0.8039s0.389 0.401 1.177 0.8039v1.7561h0.448l0.001-1.547c0.178 0.076 0.37 0.147 0.577 0.2129l-0.004 1.3341h0.448v-1.203zm-2.754 12.993c1.333 0 2.633-0.1471 3.896-0.386l-0.045-9.3841 0.441-0.01 0.479 9.229c0.578-0.1339 1.156-0.3189 1.714-0.4979l0.267-10.771h0.307l0.619 10.343c0.567-0.223 1.13-0.494 1.674-0.766l0.211-9.577h0.46l0.568 8.904c0.526-0.31 1.036-0.658 1.528-1.012l0.153-7.892h0.778l0.506 6.776c0.465-0.397 0.905-0.831 1.334-1.2671l0.096-5.5089h1.106l0.224 3.892c0.326-0.408 0.628-0.848 0.922-1.278l-0.008-2.614 1.535 0.0109c1.337-2.7309 2.089-5.784 2.089-9.0449 0-4.2801-1.293-8.263-3.505-11.573l-0.003 13.682h-1.56l-0.015-13.806h-1.706c-1.915 1.13-9.08 5.2231-13.946 1.044-4.863 4.1791-12.031 0.086-13.943-1.044h-1.822v13.806h-1.546l-0.002-13.891-0.017 0.006c-2.298 3.352-3.643 7.409-3.643 11.776 0 3.242 0.744 6.302 2.062 9.038l1.881-0.004-0.01 3.132c0.413 0.576 0.872 1.13 1.34 1.659l0.1-4.791h1.177l0.549 6.628 0.007 0.005c0.326 0.289 0.673 0.564 1.017 0.8289l0.164-7.4619h0.638l0.557 8.426c0.504 0.332 1.028 0.626 1.563 0.915l0.155-9.341h0.549l0.309 9.8469c0.603 0.2831 1.219 0.5461 1.853 0.7731l0.152-10.62h0.357l0.305 10.885c0.597 0.185 1.208 0.344 1.828 0.4749l0.043-5.7609c-0.147-0.394-0.3-0.9471-0.292-1.508 0.034-0.746 0.255-1.55 0.795-2.0461h2.196c-1.048 1.3561-0.464 3.719 0.828 4.3111-0.077-0.307-0.192-1.473 0.551-2.174 0.552-0.521 0.827-1.433 0.31-2.14l2.687 0.003c0.357 0.6371 1.04 2.305-0.435 3.768-0.942 0.9341-0.958 2.888-0.958 2.888-0.409 0-1.713-0.942-1.747-1.599 0 0-0.03 2.0491 0.865 3.2731 0.205 0.284-0.526 0.299-1.733-0.7051l-0.005 2.099c0.392 0.0241 0.799 0.0511 1.196 0.0511m-3.786-5.242 0.023 4.8809c0.732 0.1361 1.478 0.2281 2.235 0.2871l-0.001-2.296c-0.24-0.193-0.591-0.528-0.826-0.7671 0.009 0.0111-0.992-1.0449-1.431-2.1049m3.87-26.935c2.103 2.1829 6.19 2.724 10.101-0.3191h-2.533c-4.362 3.088-7.812 0.065-7.568 0.3191-2.103 2.1829-6.19 2.724-10.1-0.3191h2.532c4.364 3.088 7.813 0.065 7.568 0.3191m7.782-6.747c-1.03-1.032-3.801-1.844-5.078-1.327 0.553 1.805 3.476 1.624 5.078 1.327m-2.194 3.135c-0.272-1.48-1.792-3.5201-3.797-3.776 0.296 2.007 2.315 3.538 3.797 3.776m4.028 0.464c-0.231-0.9241-2.005-3.23-4.238-3.025 0.405 1.883 2.939 3.0959 4.238 3.025m4.234 0.5759c-0.647-1.5609-2.667-3.8509-5.379-4.0059 0.587 2.74 3.194 3.953 5.379 4.0059m-12.698 1.227h0.514l-0.508-4.396-0.548 0.006c0-0.33-0.276-0.599-0.608-0.599-0.333 0-0.61 0.269-0.61 0.599l-0.545-0.006-0.508 4.396h0.513l0.318-3.69h0.451l-0.25 3.69h1.262l-0.251-3.69h0.451l0.319 3.69zm-3.832-6.7289c-1.277-0.517-4.05 0.295-5.079 1.327 1.602 0.297 4.525 0.478 5.079-1.327m0.913 0.686c-2.006 0.2559-3.526 2.296-3.797 3.776 1.482-0.238 3.5-1.769 3.797-3.776m-3.589 1.215c-2.232-0.205-4.004 2.1009-4.236 3.025 1.299 0.0709 3.833-1.142 4.236-3.025m-3.091-0.405c-2.713 0.155-4.732 2.445-5.38 4.0059 2.185-0.0529 4.792-1.2659 5.38-4.0059m8.439 6.2589-15.994-1.7989-0.006-0.021c3.826-4.522 9.54-7.392 15.924-7.392s12.048 2.9 15.873 7.417l-15.797 1.7949zm-25.467 10.615c0 0.503 0.071 1.177 0.67 1.177 0.6 0 0.671-0.674 0.671-1.177 0-0.461-0.089-1.098-0.671-1.098s-0.67 0.637-0.67 1.098m1.23-2.174c0.163-0.261 0.162-0.9261 0.162-1.234 0-0.498-0.116-1.3041-0.737-1.3041-0.667 0-0.708 0.8061-0.708 1.321 0 0.4331-0.014 1.255 0.419 1.461 0.333 0.169 0.675 0.067 0.864-0.2439m19.125 29.467c0.593-1.914 0.278-2.749-0.781-3.074-1.031-0.318-1.772 0.1889-2.357 2.0849-0.597 1.9341-0.236 2.7601 0.774 3.0711 1.031 0.315 1.763-0.1361 2.364-2.082m25.008-9.331 1.687 0.551-1.032-1.397-0.655 0.846zm8.86-23.354s-0.936 0.1099-1.883-0.031l-0.005 0.0189c0.207 0.3391 3.22 5.5681 3.22 5.5681 0.008 0.032-0.01 0.068-0.036 0.071-1.15 0.071-1.729 0.0139-2.925-0.086-0.181-0.0561-0.015 0.3969-0.047 0.844-0.016 0.2299-0.007 0.442-0.029 0.683 1.184-0.1171 4.115-0.003 4.115-0.003l0.185-0.841c-1.57-2.556-2.349-5.2781-2.595-6.224m-2.88 0.4329c-0.515-0.378-1.109-0.5349-1.914-0.5349-0.492-0.004-1.35 0.1629-1.699 0.729-0.277 0.448-0.358 0.7589-0.34 1.221h1.258c0.023-0.7041 0.107-1.305 0.767-1.3031 0.805 0 1.136 0.7171 1.136 1.5351 0 0.368 0.02 0.792-0.211 1.0869-0.21 0.2521-0.439 0.3801-0.893 0.3801-0.497 0-0.805-0.25-1.047-0.5021l-0.509 0.3601c0.128 2.582-0.155 3.586-0.037 3.607 0.169-0.004 2.275-0.159 3.857 0.056 0.114 0.015 0.043-0.558 0.043-0.758 0-0.2101 0.139-0.8251-0.062-0.763-1.232 0.2269-2.759 0.0449-2.759 0.0449l-0.061-1.4049 0.068-0.0331c0.315 0.1691 0.852 0.2121 1.209 0.2121 0.383 0 0.999-0.1491 1.428-0.593 0.448-0.462 0.604-0.964 0.604-1.5511 0-0.7139-0.272-1.3779-0.838-1.789m-4.186 15.404c-0.174 0.4541-0.801 1.5731-1.031 1.9041l4.724 2.571s-0.827 1.323-0.866 1.3789c0.105 0.021 0.849 0.437 0.92 0.5041l2.645-4.756c-0.098-0.0221-0.853-0.419-0.925-0.495-0.025 0.064-0.684 1.4759-0.684 1.4759l-4.783-2.583zm-1.953 3.3791c-0.203 0.26-0.628 0.7139-0.847 0.965 0.391 0.633 0.641 1.034 1.086 1.7099l-0.85 1.0951c-0.746-0.205-1.297-0.348-1.942-0.5741-0.104 0.1481-0.343 0.5381-0.455 0.68-0.111 0.146-0.533 0.6071-0.652 0.745l6.776 1.9001c0.075-0.129 0.484-0.672 0.575-0.789 0.091-0.116 0.551-0.6951 0.657-0.801l-3.699-5.895c-0.186 0.274-0.447 0.704-0.649 0.964m-4.941 5.491c-0.265 0.219-0.548 0.418-0.825 0.623l3.496 4.2229c-0.753 0.622-0.813 0.5871-1.406 0.992 0.105 0.086 0.238 0.2281 0.395 0.3971 0.088 0.097 0.245 0.333 0.306 0.4519l4.162-3.4449c-0.106-0.0861-0.282-0.2871-0.366-0.39-0.089-0.109-0.273-0.341-0.337-0.458-0.584 0.568-0.517 0.599-1.164 1.136l-3.496-4.225c-0.252 0.235-0.5 0.4779-0.765 0.695m-4.901 2.985c-0.448 0.3659-1.015 0.941-0.986 0.971 0.285 0.3 0.578 0.672 0.791 1.057l0.577-0.319c-0.289-0.6141-0.011-1.06 0.386-1.28 0.513-0.283 0.889-0.126 1.131 0.217 0.863 1.231-1.987 2.1369-0.886 4.117 0.523 0.946 1.856 1.226 3.105 0.532 0.593-0.327 1.368-1.175 1.452-1.4471-0.244-0.2089-0.655-0.5529-0.892-0.789l-0.384 0.2141c0.078 0.527 0.034 0.966-0.436 1.227-0.565 0.312-1.034-0.1651-1.102-0.567-0.177-1.061 2.252-2.107 0.967-3.956-0.679-0.98-2.362-1.0901-3.723 0.023m-5.61 6.467c0.201-1.056 2.84-1.198 2.274-3.378-0.3-1.156-1.84-1.8401-3.503-1.2651-0.546 0.1871-1.276 0.5311-1.259 0.5701 0.162 0.38 0.309 0.83 0.377 1.265l0.651-0.101c-0.059-0.676 0.356-0.998 0.807-1.0671 0.577-0.0879 0.876 0.1891 0.985 0.5951 0.384 1.455-2.602 1.318-2.257 3.558 0.165 1.0679 1.319 1.791 2.731 1.573 0.669-0.105 1.687-0.6301 1.863-0.858-0.158-0.28-0.421-0.745-0.562-1.047l-0.437 0.066c-0.11 0.5219-0.304 0.919-0.832 1.003-0.641 0.0969-0.914-0.514-0.838-0.914m-4.903-4.282c-0.379-0.0121-0.756-0.0511-1.135-0.0821l-0.185 6.4501c0.379-0.0101 0.758-0.003 1.137 0.009 0.378 0.01 0.756 0.027 1.133 0.056l0.187-6.449c-0.379 0.009-0.759 0.0249-1.137 0.016m-5.054-0.907c-2.291-0.708-3.899 0.081-4.527 2.1189-0.609 1.9681 0.264 3.62 2.538 4.3221 2.26 0.697 3.927-0.17 4.526-2.11 0.636-2.0631-0.268-3.63-2.537-4.331m-5.414-1.9411c-1.025 0.3171-1.954 0.542-2.872 0.826l-1.317 0.4561 1.725-2.726c-0.109-0.054-0.567-0.3711-0.671-0.4331-0.105-0.0639-0.633-0.482-0.633-0.482-0.825 1.4591-1.045 1.7641-1.778 2.9721-0.522 0.8609-0.908 1.5-1.614 2.492l1.308 0.792c1.896-0.554 2.234-0.677 4.152-1.286l-1.682 2.7799c0.114 0.0481 0.684 0.3611 0.788 0.4241 0.104 0.0629 0.606 0.423 0.606 0.423 0.537-1.0531 1.14-2.075 1.657-2.916 0.45-0.7281 0.684-1.143 1.588-2.6501l-1.257-0.672zm-5.699-4.041c-0.265-0.271-0.508-0.5619-0.76-0.8459l-4.62 4.5019c0.279 0.2571 0.55 0.521 0.815 0.7921 0.263 0.271 0.52 0.55 0.77 0.834l4.621-4.502c-0.278-0.258-0.564-0.509-0.826-0.7801m-3.791-4.6439-5.159 3.793c0.239 0.295 0.486 0.584 0.71 0.888 0.225 0.306 0.427 0.625 0.635 0.943l4.576-3.3661c0.779 1.0621 0.534 0.839 1.091 1.7091 0.088-0.104 0.236-0.211 0.343-0.288 0.106-0.078 0.347-0.2201 0.347-0.2201-0.986-1.102-1.813-2.2359-2.543-3.4589m-2-4.621-5.902 2.487c0.165 0.341 0.337 0.677 0.485 1.0279 0.147 0.349 0.268 0.7091 0.398 1.0641l5.233-2.204c0.512 1.214 0.324 0.94 0.663 1.914 0.109-0.078 0.28-0.148 0.401-0.1991 0.121-0.0499 0.39-0.135 0.39-0.135-0.702-1.3-1.243-2.5959-1.668-3.9549m-2.24-13.811c-0.602 0-1.246 0.1241-1.745 0.4851-0.478 0.3539-0.726 0.96-0.726 1.5489 0 0.8611 0.57 1.846 1.452 1.9901v0.074c-0.674 0.1339-1.204 0.6179-1.204 1.313 0 1.2269 1.153 2.02 2.213 2.02 0.582 0 1.059-0.052 1.548-0.382 0.447-0.3121 0.686-0.983 0.686-1.5441 0-0.7699-0.457-1.208-1.196-1.4069v-0.074c1.034-0.087 1.435-0.993 1.435-1.854 0-1.341-1.081-2.1701-2.463-2.1701m-3.125 0.0511c-0.274 0.0249-0.658 0.0269-0.86 0.0269-0.203 0-0.596-0.006-0.87-0.0269v5.48c-0.447-0.261-0.747-0.4761-1.077-0.737 0 0-0.421 0.564-0.587 0.72v0.0849c1.057 0.336 3.062 1.6421 3.267 1.7461 0.078 0.04 0.126 0.005 0.127-0.054 0.004-0.164 0-7.24 0-7.24m-1.386 12.49c0.076 0.37 0.137 0.724 0.195 1.0969l6.319-1.299c-0.097-0.3679-0.199-0.7329-0.276-1.1039-0.076-0.371-0.124-0.746-0.182-1.121l-6.318 1.299c0.095 0.3659 0.186 0.757 0.262 1.128m58.704-0.74c-0.131-0.015-0.361-0.042-0.487-0.075-0.124-0.031-0.341-0.115-0.463-0.165-0.065 0.571-0.074 0.9129-0.324 1.829l-1.594-0.399 0.178-0.7071c0.101-0.406 0.231-0.7669 0.359-1.0899-0.131-0.015-0.447-0.065-0.573-0.096-0.127-0.032-0.487-0.1501-0.609-0.199-0.038 0.3429-0.094 0.724-0.197 1.129l-0.177 0.707-1.773-0.442c0.24-0.921 0.322-1.3061 0.533-1.838-0.131-0.014-0.36-0.043-0.485-0.073-0.127-0.0331-0.4-0.131-0.522-0.18l-1.023 4.0769 6.151 1.5401 1.006-4.018zm-29.44 26.381c-17.496 0-31.679-14.183-31.679-31.681 0-2.6781 0.344-5.273 0.969-7.755l10.233 0.003c-0.915 2.4129-1.429 5.025-1.429 7.758 0 12.095 9.805 21.897 21.897 21.897s21.896-9.802 21.896-21.897c0-2.733-0.471-5.3451-1.388-7.761l10.2 0.005c0.622 2.4809 0.982 5.076 0.982 7.75 0 17.498-14.184 31.681-31.681 31.681m4.773-56.91c0.104-0.7671-0.244-1.042-0.66-1.141-0.375 2.035-0.435 2.149-0.333 2.1709 0.132 0.0191 0.583 0.0641 0.812-0.4229 0.084-0.177 0.161-0.4801 0.181-0.607m20.146 8.4519-2.218 1.565c-1.451 0.0971-2.799 0.128-4.35 0.232 0 0 0.489 0.6101 0.875 1.1841 0.318 0.473 0.566 0.955 0.566 0.955 0.663-0.067 2.095-0.1811 2.363-0.2121l-1.275 1.8241c0.114 0.136 0.384 0.578 0.489 0.7309 0.098 0.148 0.413 0.6471 0.496 0.802 0.671-1.3989 1.265-2.3819 1.876-3.6269l2.435-1.588c-0.17-0.218-0.514-0.68-0.668-0.906-0.155-0.226-0.452-0.722-0.589-0.9601m-4.225-4.8809c-0.25-0.234-0.481-0.493-0.717-0.7411l-3.763 3.9851c-0.712-0.672-0.684-0.7351-1.16-1.276-0.07 0.1159-0.258 0.3379-0.355 0.438-0.091 0.097-0.29 0.286-0.4 0.362l3.928 3.71c0.07-0.114 0.283-0.323 0.373-0.419 0.098-0.1021 0.272-0.3031 0.383-0.379-0.637-0.512-0.658-0.443-1.269-1.017l3.764-3.984c-0.263-0.2251-0.533-0.4411-0.784-0.679m-4.228-3.526c-0.308-0.2181-0.674-0.448-0.97-0.682l-3.734 5.262c0.32 0.204 0.645 0.4209 0.953 0.643 0.309 0.216 0.601 0.4339 0.9 0.67l3.732-5.2621c-0.318-0.2049-0.572-0.411-0.881-0.6309m-5.397-2.967c-0.558-0.153-1.352-0.283-1.362-0.241-0.096 0.448-0.233 0.825-0.403 1.2579l0.595 0.2831c0.332-0.5901 0.856-0.622 1.269-0.425 0.525 0.2519 0.617 0.651 0.476 1.048-0.504 1.4169-2.892-0.383-3.871 1.663-0.467 0.975 0.076 2.2229 1.366 2.839 0.611 0.292 1.75 0.434 2.022 0.344 0.028-0.321 0.073-0.854 0.126-1.182l-0.396-0.191c-0.385 0.368-0.771 0.588-1.255 0.3559-0.581-0.279-0.463-0.9389-0.174-1.2279 0.761-0.755 3.021 0.617 3.784-1.5041 0.404-1.1209-0.481-2.5559-2.177-3.0199m-3.882-1.1521c-0.322-0.0759-1.203-0.245-1.525-0.3259l-0.493 0.668c-0.265 0.423-0.39 0.681-0.689 1.0359l-0.077-0.0129 0.337-1.858c-0.274-0.0281-0.842-0.104-1.113-0.1531-0.271-0.052-0.839-0.1809-1.107-0.2479l-1.153 6.346 2.146 0.391c0.509 0.09 1.297 0.253 1.791 0.133 0.668-0.165 1.215-0.611 1.329-1.2441 0.164-0.906-0.125-1.675-0.848-2.003 0.758-0.7789 1.158-1.3389 1.964-2.0819 0 0 0.422-0.375 0.388-0.43-0.034-0.054-0.501-0.109-0.95-0.2171m-6.718 4.4551c-0.566 0.082-0.899 0.1389-1.849 0.1339l-0.025-1.597 0.73-0.01c0.418-0.005 0.802 0 1.147 0.044-0.021-0.13-0.038-0.484-0.041-0.6159-0.001-0.1291 0.008-0.471 0.025-0.601-0.345 0.051-0.724 0.0689-1.143 0.075l-0.73 0.009-0.025-1.802c0.95-0.004 1.344-0.0239 1.913 0.0451-0.021-0.132-0.038-0.3811-0.041-0.515-0.001-0.128 0.009-0.395 0.027-0.525l-4.204 0.057 0.085 6.34 4.144-0.057c-0.02-0.132-0.04-0.3581-0.041-0.492-0.002-0.127 0.011-0.357 0.028-0.489m-9.176-4.276s-0.477 0.158-0.602 0.197c-0.135 0.045-0.599 0.212-0.729 0.2359-0.131 2.3271-0.29 4.5371-0.398 6.9151 0.253-0.102 0.975-0.348 1.233-0.434 0.26-0.0851 0.878-0.2731 1.143-0.342-0.021-1.7-0.021-2.0011 0.021-3.633 1.085 1.266 1.267 1.5409 2.346 2.917 0.234-0.08 0.692-0.236 0.826-0.2771 0.134-0.0449 0.524-0.1789 0.718-0.216-1.548-1.7689-2.902-3.456-4.558-5.3629m-5.598 2.1779c-0.307 0.224-0.608 0.4311-0.924 0.6411-0.318 0.207-0.649 0.415-0.975 0.608l3.54 5.39c0.307-0.224 0.669-0.466 0.984-0.672 0.318-0.211 0.589-0.3841 0.916-0.572l-3.541-5.3951zm-4.765 3.8511c0.043 1.072 0.02 2.027 0.06 2.986l0.101 1.394-2.19-2.371c-0.082 0.091-0.504 0.454-0.592 0.539-0.088 0.0849-0.681 0.537-0.681 0.537 1.129 0.99 1.814 1.7489 2.468 2.4309 0.699 0.7261 1.217 1.2641 1.994 2.2001l1.1-1.0571c-0.049-1.9779-0.078-2.3339-0.172-4.3429l2.252 2.341c0.075-0.1 0.525-0.57 0.614-0.658 0.086-0.083 0.562-0.474 0.562-0.474-0.878-0.7901-1.712-1.6341-2.39-2.3531-0.587-0.6189-1.223-1.286-2.085-2.2959l-1.041 1.124zm-5.177 6.1439c-0.595 0.2961-1.085 0.8311-1.426 1.4171-0.769 1.327-0.97 2.433-0.105 3.3769 0.262 0.2791 0.594 0.5331 0.919 0.7221l3.32 1.9239c0.112-0.232 0.416-0.7509 0.544-0.9729 0.129-0.2201 0.425-0.739 0.571-0.951l-2.341-1.288c-0.447-0.258-1.125-0.6291-1.501-0.953-0.353-0.313-0.577-0.4371-0.665-0.9241-0.048-0.2719-0.041-0.4249 0.131-0.7219 0.388-0.6661 0.914-0.625 1.374-0.497 0.499 0.2 1.309 0.704 1.709 0.936l2.427 1.492c0.051-0.126 0.391-0.71 0.457-0.828 0.066-0.114 0.306-0.523 0.389-0.6311l-2.896-1.677c-0.943-0.513-1.785-1.0119-2.907-0.424m44.248 8.002c-3.427-7.6189-11.116-12.941-20.01-12.941-8.908 0-16.578 5.32-19.999 12.957l-10.378 0.002c3.853-13.149 15.988-22.75 30.386-22.75 14.393 0 26.513 9.601 30.371 22.746l-10.37-0.0141zm-19.999 41.895c18.186 0 32.931-14.746 32.931-32.934s-14.745-32.93-32.931-32.93c-18.188 0-32.933 14.742-32.933 32.93s14.745 32.934 32.933 32.934m0 3.294c-20.007 0-36.226-16.22-36.226-36.225 0-20.008 16.219-36.226 36.226-36.226 20.006 0 36.225 16.218 36.225 36.226 0 20.005-16.219 36.225-36.225 36.225" fill="#ce1126"/></g></g></svg>
